<svg class="loading" width="24" height="24" viewBox="0 0 24 24" fill="none" xmlns="http://www.w3.org/2000/svg">
<path d="M22.0553 9.38381C21.7719 9.38381 21.5122 9.18729 21.4177 8.89251C20.0954 4.39713 16.1755 1.4002 11.6652 1.4002C7.72176 1.4002 4.10886 3.783 2.43228 7.49231C2.26698 7.83622 1.86555 7.98361 1.53496 7.83622C1.20437 7.66426 1.06268 7.24666 1.20437 6.90275C3.11708 2.70214 7.22587 0 11.6652 0C16.7658 0 21.2052 3.41453 22.6929 8.47491C22.8109 8.84338 22.5984 9.23642 22.2442 9.33468C22.1734 9.35924 22.1261 9.38381 22.0553 9.38381Z" fill="#1BA1BE"/>
<path d="M0.708413 3.75845L1.98356 6.80451L4.93527 5.478L4.22686 7.34493L1.27514 8.67144L0 5.62539L0.708413 3.75845Z" fill="#1BA1BE"/>
<path d="M11.6653 24C6.5647 24 2.12532 20.5855 0.637652 15.5251C0.519583 15.1566 0.732106 14.7636 1.08631 14.6653C1.44052 14.5425 1.81834 14.7636 1.91279 15.1321C3.23516 19.5783 7.15504 22.5998 11.6653 22.5998C15.6088 22.5998 19.2217 20.217 20.8982 16.5077C21.0635 16.1638 21.465 16.0164 21.7956 16.1638C22.1262 16.3357 22.2678 16.7533 22.1262 17.0973C20.2134 21.2733 16.1046 24 11.6653 24Z" fill="#1BA1BE"/>
<path d="M22.622 20.2415L21.3469 17.1709L18.3951 18.522L19.1036 16.6551L22.0553 15.304L23.3304 18.3746L22.622 20.2415Z" fill="#1BA1BE"/>
</svg>

